<?xml version="1.0" encoding="UTF-8" standalone="no"?>
<!DOCTYPE svg PUBLIC "-//W3C//DTD SVG 1.1//EN" "http://www.w3.org/Graphics/SVG/1.1/DTD/svg11.dtd">
<svg width="100%" height="100%" viewBox="0 0 200 200" version="1.1" xmlns="http://www.w3.org/2000/svg" xmlns:xlink="http://www.w3.org/1999/xlink" xml:space="preserve" xmlns:serif="http://www.serif.com/" style="fill-rule:evenodd;clip-rule:evenodd;stroke-linejoin:round;stroke-miterlimit:2;">
    <g transform="matrix(1,0,0,1,-2250,0)">
        <rect id="Artboard10" x="2250" y="0" width="200" height="200" style="fill:none;"/>
        <g id="Artboard101" serif:id="Artboard10">
            <g transform="matrix(0.341379,0,0,0.341379,2230.52,4.41179)">
                <path d="M388.76,338.8C379.487,326.902 366.186,318.761 350.873,318.761C335.475,318.761 322.174,326.898 312.986,338.8C303.799,350.788 298.373,366.886 298.373,384.386C298.373,394.71 300.209,404.597 303.713,413.437C306.076,419.476 309.225,425.074 312.986,429.976C322.174,441.874 335.474,450.015 350.873,450.015C366.185,450.015 379.486,441.878 388.76,429.976C395.674,420.874 400.487,409.499 402.408,396.902C403.021,392.879 403.369,388.675 403.369,384.39C403.373,366.886 397.947,350.788 388.76,338.8L388.76,338.8ZM586.25,473.64L560,473.64L560,281.14C560,276.328 556.063,272.39 551.25,272.39C546.438,272.39 542.5,276.328 542.5,281.14L542.5,473.64L488.863,473.64C500.414,464.628 505.226,447.913 497.351,433.304L449.578,344.753C436.453,320.515 429.539,293.39 429.539,265.741L429.539,263.554C429.539,235.291 436.801,207.467 450.539,182.791L472.328,143.503L507.766,72.275C520.539,46.638 501.641,16.627 473.028,16.974C459.114,17.15 446.426,24.764 439.864,37.013L367.325,171.153C364.001,177.278 355.165,177.278 351.927,171.153L279.739,37.193C272.825,24.33 259.438,16.369 244.915,16.369C214.903,16.369 195.829,48.307 209.915,74.642L246.751,143.244L262.939,179.732C274.576,205.896 279.212,234.595 276.501,263.033L275.013,279.482C273.177,298.119 268.275,316.408 260.4,333.47L217.525,426.044C209.302,443.982 216.212,463.756 230.916,473.643L157.502,473.643L157.502,281.143C157.502,276.33 153.564,272.393 148.752,272.393C143.939,272.393 140.002,276.33 140.002,281.143L140.002,473.643L113.752,473.643C99.229,473.643 87.502,485.455 87.502,499.893L87.502,517.392C87.502,531.915 99.229,543.642 113.752,543.642L586.252,543.642C600.775,543.642 612.502,531.915 612.502,517.392L612.502,499.892C612.502,485.454 600.775,473.642 586.252,473.642L586.25,473.64ZM273.09,473.64C279.567,469.441 284.641,463.14 287.528,455.617L295.317,435.316C285.954,420.878 280.879,403.027 280.879,384.39C280.879,363.39 287.356,343.441 299.078,328.214C310.89,312.902 328.914,301.265 350.879,301.265C372.754,301.265 390.867,312.902 402.59,328.214C414.317,343.441 420.879,363.39 420.879,384.39C420.879,396.288 418.777,407.753 414.84,418.339L441.703,464.452C443.805,468.128 446.515,471.19 449.664,473.64L273.09,473.64ZM350.879,318.76C335.481,318.76 322.18,326.897 312.992,338.799C303.804,350.787 298.379,366.885 298.379,384.385C298.379,394.709 300.215,404.596 303.719,413.436C306.082,419.475 309.231,425.073 312.992,429.975C322.18,441.873 335.48,450.014 350.879,450.014C366.191,450.014 379.492,441.877 388.766,429.975C395.68,420.873 400.493,409.498 402.414,396.901C403.027,392.878 403.375,388.674 403.375,384.389C403.375,366.889 397.949,350.787 388.762,338.803C379.493,326.897 366.192,318.76 350.879,318.76L350.879,318.76ZM388.766,338.799C379.493,326.901 366.192,318.76 350.879,318.76C335.481,318.76 322.18,326.897 312.992,338.799C303.804,350.787 298.379,366.885 298.379,384.385C298.379,394.709 300.215,404.596 303.719,413.436C306.082,419.475 309.231,425.073 312.992,429.975C322.18,441.873 335.48,450.014 350.879,450.014C366.191,450.014 379.492,441.877 388.766,429.975C395.68,420.873 400.493,409.498 402.414,396.901C403.027,392.878 403.375,388.674 403.375,384.389C403.379,366.885 397.953,350.787 388.766,338.799L388.766,338.799Z" style="fill:rgb(51,65,85);fill-rule:nonzero;"/>
            </g>
        </g>
    </g>
</svg>
