<?xml version="1.0" encoding="UTF-8" standalone="no"?>
<!DOCTYPE svg PUBLIC "-//W3C//DTD SVG 1.1//EN" "http://www.w3.org/Graphics/SVG/1.1/DTD/svg11.dtd">
<svg width="100%" height="100%" viewBox="0 0 200 200" version="1.1" xmlns="http://www.w3.org/2000/svg" xmlns:xlink="http://www.w3.org/1999/xlink" xml:space="preserve" xmlns:serif="http://www.serif.com/" style="fill-rule:evenodd;clip-rule:evenodd;stroke-linejoin:round;stroke-miterlimit:2;">
    <g transform="matrix(1,0,0,1,-2000,0)">
        <rect id="Artboard9" x="2000" y="0" width="200" height="200" style="fill:none;"/>
        <g id="Artboard91" serif:id="Artboard9">
            <g transform="matrix(0.369662,0,0,0.369662,1970.53,-6.62824)">
                <path d="M540.17,175C531.455,175.008 531.537,176.637 529.162,173.731C525.771,169.57 514.498,154.465 514.498,154.465C486.037,111.063 426.432,72.477 426.432,72.477C391.182,56.528 358.299,53.293 329.022,56.965C319.448,53.113 303.448,47.722 291.256,48.914C291.256,48.914 305.135,52.238 311.483,59.137C301.499,58.98 288.823,59.758 279.846,63.789C279.846,63.789 287.643,63.094 295.026,64.551C235.249,83.883 197.413,127.688 197.413,127.688C122.702,113.079 108.081,176.418 108.081,176.418C98.374,223.758 145.929,258.328 147.163,258.688C148.393,259.047 156.405,263.774 156.405,263.774L161.944,288.473C162.362,290.965 162.819,293.668 163.311,296.617C167.491,321.699 185.448,347.176 204.991,366.683L217.065,334.769C174.909,307.3 156.725,252.906 174.76,205.269C190.651,163.261 231.498,135.039 276.4,135.039C289.525,135.039 302.459,137.414 314.83,142.094C362.752,160.231 390.303,208.832 384.037,257.564C388.377,259.244 392.944,261.486 397.701,264.583C418.92,278.388 440.193,321.755 440.193,321.755C442.248,328.791 446.467,343.216 448.467,350.443C451.318,360.724 447.393,373.791 442.412,390.322L440.314,397.326C433.154,421.681 403.334,434.181 397.427,436.428C389.842,439.327 374.458,444.186 356.615,444.186C349.514,444.186 342.646,443.409 336.217,441.87C319.072,437.784 311.764,429.354 303.295,419.62C299.174,414.862 294.499,409.479 287.9,403.581C274.185,391.308 271.564,368.839 271.736,352.226C267.994,352.062 264.256,351.776 260.545,351.226L243.483,396.331C247.573,398.444 251.257,399.92 254.249,400.565C276.983,405.432 280.233,415.178 280.233,415.178C312.721,472.03 410.163,446.045 434.533,434.666C458.896,423.303 441.03,402.178 476.756,381.064C512.49,359.955 538.483,299.857 538.483,299.857C593.706,291.732 593.706,231.634 593.706,231.634C590.542,184.892 548.878,174.989 540.163,174.997L540.17,175ZM442.44,253.176C435.772,253.176 430.366,247.91 430.366,241.414C430.366,234.918 435.78,229.652 442.44,229.652C449.116,229.652 454.514,234.918 454.514,241.414C454.514,247.91 449.108,253.176 442.44,253.176ZM432.674,190.121C461.221,177.16 487.748,206.949 487.748,206.949C466.506,189.082 404.135,203.09 432.674,190.121Z" style="fill:rgb(51,65,85);fill-rule:nonzero;"/>
                <path d="M388.88,394.75C427.618,383.25 359.423,402.91 309.771,387.859C301.88,385 292.283,380.258 289.865,379.117C294.869,381.828 304.006,387.375 309.494,389.734C328.662,396.683 360.822,403.086 388.881,394.75L388.88,394.75Z" style="fill:rgb(51,65,85);fill-rule:nonzero;"/>
                <path d="M302.26,175.31C293.92,172.158 285.213,170.552 276.389,170.552C246.162,170.552 218.662,189.556 207.955,217.837C201.041,236.107 201.654,255.985 209.686,273.794C217.721,291.603 232.206,305.212 250.475,312.134C258.814,315.294 267.522,316.892 276.346,316.892C277.205,316.892 278.049,316.818 278.892,316.787C289.474,302.4 299.06,290.713 309.646,277.744C319.74,265.389 339.701,255.314 348.802,253.498C350.646,240.049 348.759,226.326 343.045,213.643C335.025,195.838 320.537,182.217 302.26,175.311L302.26,175.31ZM258.686,255.122C251.713,255.122 246.061,249.61 246.061,242.817C246.061,236.024 251.713,230.52 258.686,230.52C265.659,230.52 271.311,236.032 271.311,242.817C271.303,249.61 265.659,255.122 258.686,255.122ZM221.963,210.286C221.963,210.286 256.584,190.462 279.529,211.825C302.47,233.177 256.572,196.911 221.963,210.286Z" style="fill:rgb(51,65,85);fill-rule:nonzero;"/>
                <path d="M379.45,298.26C374.681,297.276 374.001,305.569 375.618,309.94C377.247,314.331 384.204,327.592 390.708,325.963C397.204,324.342 394.501,320.834 392.681,309.94C390.708,298.186 379.451,298.26 379.451,298.26L379.45,298.26Z" style="fill:rgb(51,65,85);fill-rule:nonzero;"/>
                <path d="M311.96,149.68C260.022,130.028 201.99,156.207 182.34,208.137C164.508,255.258 184.406,307.391 227.035,331.327L160.926,506.057C159.871,508.123 159.223,510.44 159.223,512.913C159.223,521.327 166.039,528.151 174.461,528.151C180.996,528.151 186.527,524.014 188.684,518.24L255.352,342.03C303.145,352.311 352.575,326.401 370.402,279.28C390.058,227.362 363.886,169.33 311.957,149.68L311.96,149.68ZM352.378,272.48C336.495,314.457 289.597,335.609 247.618,319.73C205.641,303.847 184.489,256.937 200.368,214.96C216.251,172.983 263.157,151.831 305.138,167.71C347.115,183.593 368.263,230.499 352.38,272.48L352.378,272.48Z" style="fill:rgb(51,65,85);fill-rule:nonzero;"/>
            </g>
        </g>
    </g>
</svg>
