<?xml version="1.0" encoding="UTF-8" standalone="no"?>
<!DOCTYPE svg PUBLIC "-//W3C//DTD SVG 1.1//EN" "http://www.w3.org/Graphics/SVG/1.1/DTD/svg11.dtd">
<svg width="100%" height="100%" viewBox="0 0 200 200" version="1.1" xmlns="http://www.w3.org/2000/svg" xmlns:xlink="http://www.w3.org/1999/xlink" xml:space="preserve" xmlns:serif="http://www.serif.com/" style="fill-rule:evenodd;clip-rule:evenodd;stroke-linejoin:round;stroke-miterlimit:2;">
    <g transform="matrix(1,0,0,1,-750,0)">
        <rect id="Artboard4" x="750" y="0" width="200" height="200" style="fill:none;"/>
        <g id="Artboard41" serif:id="Artboard4">
            <g transform="matrix(0.367347,0,0,0.367347,721.429,-2.87687)">
                <path d="M131.6,262.5C116.123,235.766 107.022,205.824 104.998,175C104.998,137.871 119.748,102.262 146.002,76.004C172.26,49.75 207.869,35 244.998,35C285.225,34.801 323.553,52.109 349.998,82.426C376.443,52.11 414.771,34.801 454.998,35C492.127,35 527.736,49.75 553.994,76.004C580.248,102.262 594.998,137.871 594.998,175C592.975,205.824 583.873,235.766 568.396,262.5L485.623,262.5L454.998,152.77C454.025,149.27 451.986,146.161 449.162,143.872C446.338,141.582 442.873,140.227 439.248,139.997C435.561,139.723 431.877,140.626 428.732,142.575C425.587,144.524 423.142,147.422 421.748,150.848L347.725,327.418L277.725,201.418C275.713,197.695 272.424,194.828 268.467,193.344C264.506,191.86 260.143,191.86 256.182,193.344C252.221,194.828 248.932,197.695 246.924,201.418L216.647,262.492L131.6,262.5ZM472.5,297.5C468.57,297.645 464.711,296.465 461.535,294.145C458.359,291.828 456.058,288.512 455,284.727L434.352,209.999L366.102,373.799C364.86,376.835 362.793,379.464 360.133,381.381C357.469,383.299 354.324,384.432 351.051,384.647L350,384.647C346.899,384.643 343.856,383.815 341.18,382.245C338.504,380.678 336.293,378.428 334.774,375.725L263.376,247.105L243.075,287.878C241.622,290.765 239.395,293.191 236.649,294.89C233.899,296.589 230.731,297.492 227.501,297.503L151.728,297.503C205.767,377.909 268.058,452.453 337.578,519.933C340.863,523.246 345.335,525.109 350.004,525.109C354.672,525.109 359.144,523.246 362.43,519.933C431.95,452.46 494.24,377.913 548.28,297.503L472.5,297.5Z" style="fill:rgb(51,65,85);fill-rule:nonzero;"/>
            </g>
        </g>
    </g>
</svg>
