<?xml version="1.0" encoding="UTF-8" standalone="no"?>
<!DOCTYPE svg PUBLIC "-//W3C//DTD SVG 1.1//EN" "http://www.w3.org/Graphics/SVG/1.1/DTD/svg11.dtd">
<svg width="100%" height="100%" viewBox="0 0 200 200" version="1.1" xmlns="http://www.w3.org/2000/svg" xmlns:xlink="http://www.w3.org/1999/xlink" xml:space="preserve" xmlns:serif="http://www.serif.com/" style="fill-rule:evenodd;clip-rule:evenodd;stroke-linejoin:round;stroke-miterlimit:2;">
    <g transform="matrix(1,0,0,1,-500,0)">
        <rect id="Artboard3" x="500" y="0" width="200" height="200" style="fill:none;"/>
        <g id="Artboard31" serif:id="Artboard3">
            <path d="M675.608,3.037C687.007,3.037 696.256,12.286 696.256,23.685L696.256,175.103C696.256,186.502 687.007,195.751 675.608,195.751L524.19,195.751C512.791,195.751 503.542,186.502 503.542,175.103L503.542,23.685C503.542,12.286 512.791,3.037 524.19,3.037L675.608,3.037ZM614.885,47.644C614.885,45.574 614.465,43.603 613.629,41.732C612.818,39.918 611.733,38.338 610.382,36.987C609.013,35.618 607.411,34.538 605.573,33.756C603.722,32.968 601.773,32.572 599.725,32.572C597.645,32.572 595.707,32.981 593.907,33.781C592.136,34.568 590.583,35.651 589.245,37.028C587.926,38.386 586.874,39.973 586.098,41.796C585.31,43.647 584.913,45.596 584.913,47.644C584.913,49.724 585.323,51.662 586.123,53.462C586.894,55.197 587.935,56.738 589.245,58.086C590.583,59.463 592.136,60.546 593.907,61.333C595.707,62.133 597.645,62.543 599.725,62.543C601.773,62.543 603.722,62.146 605.573,61.358C607.411,60.576 609.013,59.496 610.382,58.127C611.723,56.786 612.797,55.253 613.602,53.528C614.451,51.708 614.885,49.748 614.885,47.644ZM611.577,75.324C611.577,73.152 609.817,71.392 607.646,71.392L592.152,71.392C589.981,71.392 588.221,73.152 588.221,75.324L588.221,163.497C588.221,165.668 589.981,167.428 592.152,167.428L607.646,167.428C609.817,167.428 611.577,165.668 611.577,163.497L611.577,75.324Z" style="fill:rgb(51,65,85);fill-rule:nonzero;"/>
        </g>
    </g>
</svg>
