<?xml version="1.0" encoding="UTF-8" standalone="no"?>
<!DOCTYPE svg PUBLIC "-//W3C//DTD SVG 1.1//EN" "http://www.w3.org/Graphics/SVG/1.1/DTD/svg11.dtd">
<svg width="100%" height="100%" viewBox="0 0 200 200" version="1.1" xmlns="http://www.w3.org/2000/svg" xmlns:xlink="http://www.w3.org/1999/xlink" xml:space="preserve" xmlns:serif="http://www.serif.com/" style="fill-rule:evenodd;clip-rule:evenodd;stroke-linejoin:round;stroke-miterlimit:2;">
    <g transform="matrix(1,0,0,1,-250,0)">
        <rect id="Artboard2" x="250" y="0" width="200" height="200" style="fill:none;"/>
        <g id="Artboard21" serif:id="Artboard2">
            <g id="square-github.svg" transform="matrix(0.430163,0,0,0.430163,253.542,-10.7277)">
                <path d="M400,32L48,32C21.5,32 0,53.5 0,80L0,432C0,458.5 21.5,480 48,480L400,480C426.5,480 448,458.5 448,432L448,80C448,53.5 426.5,32 400,32Z" style="fill-rule:nonzero;"/>
            </g>
            <g transform="matrix(14.507,0,0,14.507,-4479.3,-1312.75)">
                <path d="M333.421,95.683L333.421,101.761L332.353,101.761L332.353,95.683L333.421,95.683ZM333.649,93.775C333.649,93.879 333.628,93.976 333.586,94.066C333.544,94.156 333.488,94.236 333.418,94.306C333.348,94.376 333.266,94.431 333.172,94.471C333.078,94.511 332.979,94.531 332.875,94.531C332.771,94.531 332.674,94.511 332.584,94.471C332.494,94.431 332.415,94.376 332.347,94.306C332.279,94.236 332.225,94.156 332.185,94.066C332.145,93.976 332.125,93.879 332.125,93.775C332.125,93.671 332.145,93.572 332.185,93.478C332.225,93.384 332.279,93.302 332.347,93.232C332.415,93.162 332.494,93.107 332.584,93.067C332.674,93.027 332.771,93.007 332.875,93.007C332.979,93.007 333.078,93.027 333.172,93.067C333.266,93.107 333.348,93.162 333.418,93.232C333.488,93.302 333.544,93.384 333.586,93.478C333.628,93.572 333.649,93.671 333.649,93.775Z" style="fill:white;fill-rule:nonzero;stroke:white;stroke-width:0.54px;"/>
            </g>
        </g>
    </g>
</svg>
