<?xml version="1.0" encoding="UTF-8" standalone="no"?>
<!DOCTYPE svg PUBLIC "-//W3C//DTD SVG 1.1//EN" "http://www.w3.org/Graphics/SVG/1.1/DTD/svg11.dtd">
<svg width="100%" height="100%" viewBox="0 0 200 200" version="1.1" xmlns="http://www.w3.org/2000/svg" xmlns:xlink="http://www.w3.org/1999/xlink" xml:space="preserve" xmlns:serif="http://www.serif.com/" style="fill-rule:evenodd;clip-rule:evenodd;stroke-linejoin:round;stroke-miterlimit:2;">
    <g transform="matrix(1,0,0,1,-1000,0)">
        <rect id="Artboard5" x="1000" y="0" width="200" height="200" style="fill:none;"/>
        <g id="Artboard51" serif:id="Artboard5">
            <g transform="matrix(0.342854,0,0,0.342854,980.003,3.39316)">
                <path d="M414.17,116.67C414.17,119.889 411.557,122.502 408.334,122.502C405.115,122.502 402.502,119.889 402.502,116.67C402.502,113.447 405.115,110.834 408.334,110.834C411.557,110.834 414.17,113.447 414.17,116.67" style="fill-rule:nonzero;"/>
                <path d="M437.5,443.33C437.5,446.553 434.887,449.166 431.668,449.166C428.445,449.166 425.832,446.553 425.832,443.33C425.832,440.111 428.445,437.498 431.668,437.498C434.887,437.498 437.5,440.111 437.5,443.33" style="fill-rule:nonzero;"/>
                <path d="M507.5,198.33C507.5,201.553 504.887,204.166 501.668,204.166C498.445,204.166 495.832,201.553 495.832,198.33C495.832,195.111 498.445,192.498 501.668,192.498C504.887,192.498 507.5,195.111 507.5,198.33" style="fill-rule:nonzero;"/>
                <path d="M437.5,303.33C437.5,306.553 434.887,309.166 431.668,309.166C428.445,309.166 425.832,306.553 425.832,303.33C425.832,300.111 428.445,297.498 431.668,297.498C434.887,297.498 437.5,300.111 437.5,303.33" style="fill-rule:nonzero;"/>
                <path d="M437.5,163.33C437.5,166.553 434.887,169.166 431.668,169.166C428.445,169.166 425.832,166.553 425.832,163.33C425.832,160.111 428.445,157.498 431.668,157.498C434.887,157.498 437.5,160.111 437.5,163.33" style="fill-rule:nonzero;"/>
                <path d="M303.33,23.332C290.955,23.332 279.084,28.25 270.334,37C261.58,45.754 256.666,57.625 256.666,70C233.795,69.801 212.299,80.887 199.193,99.629C186.088,118.371 183.06,142.367 191.099,163.777C189.611,163.64 188.177,163.332 186.666,163.332C174.393,163.308 162.607,168.129 153.869,176.746C145.13,185.359 140.142,197.074 139.994,209.348C139.841,221.618 144.54,233.453 153.064,242.282C132.552,253.344 118.974,273.977 116.927,297.192C114.884,320.407 124.645,343.098 142.907,357.579C137.578,371.849 139.617,387.825 148.364,400.302C157.106,412.775 171.43,420.142 186.665,420.001C186.665,438.567 194.04,456.372 207.165,469.497C220.294,482.626 238.099,490.001 256.665,490.001C256.614,503.939 262.817,517.161 273.563,526.032C284.313,534.907 298.469,538.493 312.145,535.805C325.821,533.121 337.571,524.446 344.165,512.168L344.165,47.848C340.204,40.461 334.313,34.278 327.126,29.965C319.938,25.649 311.716,23.36 303.329,23.336L303.33,23.332ZM186.67,355.842C183.447,355.842 180.834,353.233 180.834,350.01C180.834,346.787 183.447,344.178 186.67,344.178C196.568,344.147 206.123,340.51 213.541,333.951C220.959,327.392 225.732,318.357 226.979,308.533C209.506,306.463 194.245,295.748 186.37,280.013C178.495,264.283 179.057,245.642 187.866,230.415C189.538,227.759 193.007,226.903 195.722,228.47C198.436,230.04 199.425,233.474 197.96,236.247C191.624,247.239 190.757,260.556 195.616,272.278C200.475,284 210.507,292.798 222.764,296.083C235.022,299.368 248.108,296.767 258.178,289.048C268.248,281.329 274.158,269.364 274.17,256.677C274.17,253.454 276.78,250.841 280.002,250.841C283.225,250.841 285.834,253.454 285.834,256.677C285.795,269.642 280.947,282.134 272.229,291.736C263.51,301.334 251.538,307.357 238.635,308.638C237.35,321.544 231.327,333.513 221.729,342.232C212.128,350.951 199.635,355.802 186.67,355.841L186.67,355.842ZM280.002,472.502C276.779,472.502 274.17,469.889 274.17,466.67C274.154,455.842 269.85,445.467 262.193,437.811C254.536,430.155 244.162,425.85 233.334,425.834C230.115,425.834 227.502,423.225 227.502,420.002C227.502,416.779 230.115,414.17 233.334,414.17C247.256,414.186 260.6,419.721 270.439,429.565C280.283,439.405 285.818,452.749 285.834,466.67C285.834,468.217 285.221,469.701 284.127,470.795C283.033,471.889 281.549,472.502 280.002,472.502ZM282.932,412.553C282.045,413.069 281.037,413.338 280.014,413.338C277.377,413.338 275.068,411.565 274.385,409.014C273.701,406.467 274.814,403.776 277.096,402.455C289.725,395.155 297.502,381.674 297.502,367.084C297.502,352.498 289.724,339.018 277.096,331.717C274.443,330.045 273.584,326.577 275.154,323.862C276.725,321.147 280.158,320.159 282.932,321.624C299.174,331.002 309.178,348.331 309.178,367.089C309.178,385.843 299.174,403.175 282.932,412.554L282.932,412.553ZM303.334,192.503C292.51,192.515 282.131,196.823 274.479,204.48C266.822,212.132 262.514,222.511 262.502,233.335C262.502,236.558 259.888,239.171 256.67,239.171C253.447,239.171 250.834,236.558 250.834,233.335C250.842,215.913 259.498,199.628 273.936,189.87C274.03,188.784 274.17,187.694 274.17,186.667L274.17,186.671C274.155,175.843 269.85,165.468 262.193,157.812C254.536,150.156 244.162,145.851 233.334,145.835C230.115,145.835 227.502,143.225 227.502,140.003C227.502,136.78 230.115,134.171 233.334,134.171C246.791,134.202 259.721,139.409 269.447,148.714C279.17,158.015 284.947,170.698 285.58,184.14C291.26,182.011 297.268,180.894 303.334,180.835C306.557,180.835 309.17,183.448 309.17,186.671C309.17,189.89 306.557,192.503 303.334,192.503L303.334,192.503ZM303.334,122.503C284.596,122.46 267.287,112.476 257.865,96.276C256.247,93.487 257.197,89.917 259.982,88.299C262.771,86.682 266.341,87.631 267.959,90.42C275.283,103.029 288.752,110.803 303.334,110.834C306.556,110.834 309.169,113.448 309.169,116.67C309.169,119.889 306.556,122.502 303.334,122.502L303.334,122.503Z" style="fill:rgb(51,65,85);fill-rule:nonzero;"/>
                <path d="M507.5,350C507.5,353.223 504.887,355.832 501.668,355.832C498.445,355.832 495.832,353.223 495.832,350C495.832,346.777 498.445,344.168 501.668,344.168C504.887,344.168 507.5,346.777 507.5,350" style="fill-rule:nonzero;"/>
                <path d="M583.33,303.33C583.299,290.826 579.904,278.557 573.498,267.814C567.096,257.072 557.92,248.252 546.932,242.279C555.455,233.451 560.155,221.615 560.002,209.345C559.854,197.072 554.865,185.357 546.127,176.743C537.389,168.126 525.604,163.305 513.33,163.329C511.814,163.329 510.385,163.634 508.896,163.774C516.936,142.364 513.908,118.368 500.803,99.626C487.698,80.884 466.201,69.798 443.33,69.997C443.376,56.063 437.169,42.841 426.424,33.97C415.678,25.103 401.518,21.517 387.846,24.205C374.174,26.892 362.424,35.564 355.83,47.842L355.83,512.162C362.423,524.439 374.174,533.115 387.85,535.799C401.526,538.486 415.682,534.9 426.432,526.025C437.178,517.154 443.381,503.931 443.33,489.994C461.896,489.994 479.701,482.619 492.83,469.49C505.955,456.365 513.33,438.56 513.33,419.994C528.56,420.131 542.885,412.764 551.627,400.291C560.365,387.818 562.408,371.838 557.08,357.572C573.615,344.416 583.271,324.459 583.33,303.326L583.33,303.33ZM373.33,110.83L392.014,110.83C393.862,105.599 398.084,101.557 403.389,99.932C408.694,98.307 414.459,99.295 418.92,102.596C423.381,105.897 426.01,111.116 426.01,116.666C426.01,122.213 423.381,127.436 418.92,130.732C414.459,134.033 408.693,135.021 403.389,133.396C398.084,131.775 393.862,127.728 392.014,122.498L373.33,122.498C370.111,122.498 367.498,119.885 367.498,116.666C367.498,113.444 370.111,110.83 373.33,110.83L373.33,110.83ZM367.498,229.33L367.498,229.334C367.455,215.396 372.994,202.025 382.881,192.201L414.776,160.299C415.44,156.283 417.499,152.635 420.585,149.99C423.674,147.342 427.596,145.869 431.667,145.83C437.917,145.83 443.694,149.166 446.819,154.58C449.948,159.994 449.948,166.666 446.819,172.08C443.694,177.494 437.916,180.83 431.667,180.83C426.206,180.759 421.101,178.095 417.921,173.658L391.128,200.451C383.444,208.091 379.136,218.494 379.167,229.334L379.167,237.334L379.167,237.33C379.135,248.17 383.444,258.568 391.128,266.213L417.921,293.006C421.1,288.565 426.206,285.904 431.667,285.83C437.917,285.83 443.694,289.166 446.819,294.58C449.948,299.994 449.948,306.666 446.819,312.08C443.694,317.494 437.916,320.83 431.667,320.83C427.596,320.791 423.674,319.322 420.585,316.674C417.499,314.029 415.44,310.377 414.776,306.365L382.878,274.467L382.882,274.467C372.995,264.643 367.456,251.272 367.499,237.334L367.498,229.33ZM431.666,460.83C427.596,460.791 423.674,459.322 420.584,456.674C417.498,454.029 415.44,450.377 414.775,446.365L382.877,414.467L382.881,414.467C372.995,404.643 367.455,391.272 367.498,377.334L367.498,349.998C367.498,346.775 370.112,344.166 373.33,344.166C376.553,344.166 379.166,346.775 379.166,349.998L379.166,377.33C379.135,388.17 383.444,398.568 391.127,406.213L417.92,433.006C421.1,428.564 426.205,425.904 431.666,425.83C437.916,425.83 443.693,429.166 446.818,434.58C449.947,439.994 449.947,446.666 446.818,452.08C443.693,457.494 437.916,460.83 431.666,460.83L431.666,460.83ZM501.666,367.498C498.072,367.478 494.572,366.346 491.65,364.256C488.728,362.166 486.525,359.225 485.345,355.83L419.997,355.83C416.775,355.83 414.165,353.221 414.165,349.998C414.165,346.775 416.775,344.166 419.997,344.166L485.345,344.166C486.795,340.139 489.677,336.787 493.439,334.752C497.201,332.713 501.58,332.131 505.744,333.115C509.908,334.1 513.564,336.58 516.017,340.084C518.47,343.592 519.544,347.877 519.041,352.127C518.537,356.377 516.49,360.291 513.283,363.123C510.08,365.959 505.943,367.517 501.666,367.498L501.666,367.498ZM501.666,215.828C499.061,215.793 496.502,215.164 494.178,213.992L494.123,214.121L454.299,253.953C448.842,259.441 441.416,262.519 433.678,262.496L419.998,262.496C416.775,262.496 414.166,259.883 414.166,256.664C414.166,253.441 416.775,250.828 419.998,250.828L433.67,250.828C438.307,250.812 442.748,248.969 446.037,245.695L485.865,205.863L485.994,205.809L485.998,205.809C484.826,203.488 484.201,200.93 484.166,198.328C484.166,193.688 486.01,189.238 489.291,185.953C492.572,182.672 497.021,180.828 501.666,180.828C506.306,180.828 510.756,182.672 514.041,185.953C517.322,189.238 519.166,193.688 519.166,198.328C519.166,202.973 517.322,207.422 514.041,210.703C510.756,213.984 506.306,215.828 501.666,215.828L501.666,215.828Z" style="fill:rgb(51,65,85);fill-rule:nonzero;stroke:rgb(51,65,85);stroke-width:1px;"/>
            </g>
        </g>
    </g>
</svg>
