<?xml version="1.0" encoding="UTF-8" standalone="no"?>
<!DOCTYPE svg PUBLIC "-//W3C//DTD SVG 1.1//EN" "http://www.w3.org/Graphics/SVG/1.1/DTD/svg11.dtd">
<svg width="100%" height="100%" viewBox="0 0 200 200" version="1.1" xmlns="http://www.w3.org/2000/svg" xmlns:xlink="http://www.w3.org/1999/xlink" xml:space="preserve" xmlns:serif="http://www.serif.com/" style="fill-rule:evenodd;clip-rule:evenodd;stroke-linejoin:round;stroke-miterlimit:2;">
    <g transform="matrix(1,0,0,1,-1250,0)">
        <rect id="Artboard6" x="1250" y="0" width="200" height="200" style="fill:none;"/>
        <g id="Artboard61" serif:id="Artboard6">
            <g transform="matrix(0.364285,0,0,0.364285,1227.27,-6.13903)">
                <path d="M526.65,161.08L539.033,148.709L539.033,148.705C552.295,135.443 557.474,116.111 552.619,97.994C547.764,79.881 533.611,65.728 515.494,60.877C497.377,56.025 478.045,61.205 464.783,74.467L270.913,268.337L242.042,239.466L242.046,239.47C234.374,231.833 223.991,227.548 213.167,227.548C202.347,227.548 191.964,231.833 184.292,239.47L101.804,321.954C94.148,329.61 89.843,339.997 89.843,350.825C89.843,361.653 94.148,372.04 101.804,379.696L233.794,511.696C241.454,519.344 251.837,523.637 262.665,523.637C273.489,523.637 283.872,519.344 291.532,511.696L374.032,429.208L374.032,429.212C381.692,421.556 385.997,411.169 385.997,400.341C385.997,389.509 381.692,379.126 374.032,371.47L345.165,342.575L419.411,268.337L464.778,313.704L464.778,313.708C472.551,321.141 482.895,325.294 493.649,325.294C504.407,325.294 514.747,321.142 522.52,313.708L572.024,264.216L572.024,264.212C579.668,256.552 583.962,246.169 583.962,235.345C583.962,224.521 579.669,214.138 572.024,206.474L526.65,161.08ZM258.54,412.71C255.259,415.995 250.809,417.839 246.165,417.839C241.524,417.839 237.075,415.995 233.794,412.71L200.802,379.694C197.482,376.421 195.611,371.956 195.595,367.296C195.579,362.636 197.423,358.163 200.72,354.866C204.013,351.573 208.489,349.729 213.15,349.741C217.81,349.757 222.271,351.632 225.545,354.948L258.541,387.964C261.822,391.245 263.67,395.698 263.67,400.339C263.67,404.98 261.822,409.429 258.541,412.71L258.54,412.71Z" style="fill:rgb(51,65,85);fill-rule:nonzero;"/>
            </g>
        </g>
    </g>
</svg>
